<!-- SPDX-FileCopyrightText: 2026 Mathieu Lécrivain -->
<!-- SPDX-License-Identifier: MPL-2.0 -->
<svg xmlns="http://www.w3.org/2000/svg" viewBox="0 0 96 96" role="img" aria-label="FileLink for Gokapi">
  <rect width="96" height="96" rx="22" fill="#0c1b3a"/>
  <path d="M39.2 58.8 31.7 66.3a13.6 13.6 0 0 1-19.2-19.2L27.4 32.2a13.6 13.6 0 0 1 19.2 0 13.3 13.3 0 0 1 3.8 7.3" fill="none" stroke="#43c7c9" stroke-width="8" stroke-linecap="round"/>
  <path d="m56.8 37.2 7.5-7.5a13.6 13.6 0 1 1 19.2 19.2L68.6 63.8a13.6 13.6 0 0 1-19.2 0 13.3 13.3 0 0 1-3.8-7.3" fill="none" stroke="#ffffff" stroke-width="8" stroke-linecap="round"/>
  <path d="m35.8 60.2 24.4-24.4" fill="none" stroke="#ffffff" stroke-width="8" stroke-linecap="round"/>
</svg>
